<?xml version="1.0" standalone="no"?>
<!DOCTYPE svg PUBLIC "-//W3C//DTD SVG 20010904//EN"
 "http://www.w3.org/TR/2001/REC-SVG-20010904/DTD/svg10.dtd">
<svg version="1.0" xmlns="http://www.w3.org/2000/svg"
 width="129.000000pt" height="129.000000pt" viewBox="0 0 129.000000 129.000000"
 preserveAspectRatio="xMidYMid meet">
<metadata>
Created by potrace 1.14, written by Peter Selinger 2001-2017
</metadata>
<g transform="translate(0.000000,129.000000) scale(0.100000,-0.100000)"
fill="#000000" stroke="none">
<path d="M455 1270 c-83 -24 -107 -34 -173 -76 -156 -99 -264 -284 -275 -472
-14 -229 115 -457 319 -564 134 -70 258 -88 405 -58 79 16 95 17 147 5 33 -8
70 -16 83 -19 13 -2 83 -18 154 -35 72 -17 141 -34 153 -37 21 -4 23 -2 18 23
-3 15 -22 114 -42 218 -20 105 -39 204 -42 220 -6 32 -6 43 4 178 18 245 -109
464 -335 577 -120 60 -289 76 -416 40z"/>
</g>
</svg>
